<svg width="1676" height="337" viewBox="0 0 1676 337" fill="none" xmlns="http://www.w3.org/2000/svg">
<rect x="1" y="1" width="335" height="335" rx="167.5" fill="#68AA71"/>
<path d="M83.2388 269.99C83.2388 263.129 90.0657 258.919 107.451 255.055C113.148 253.783 113.148 253.783 101.279 251.808C86.7044 249.371 83.9034 247.771 83.3622 241.537C82.802 235.091 88.1951 230.9 101.46 227.461L111.249 224.927C86.8564 220.504 83.9224 218.741 83.3907 212.835C82.878 207.198 87.0652 203.219 97.1204 199.789L104.602 197.235C84.758 193.035 76.5164 183.101 81.3493 175.499C85.8784 168.378 91.5279 167.444 130.058 167.444C192.336 167.444 209.284 160.362 210.291 133.904C211.354 105.992 187.892 76.229 138.357 42.6413C116.576 27.8708 117.136 26.9169 142.687 35.2705C182.119 48.1621 228.151 79.187 245.099 104.306C267.526 137.527 259.683 174.034 226.964 188.708L218.542 192.485C246.343 197.611 251.081 200.164 254.252 207.237C258.373 216.438 253.084 221.641 237.627 223.578L228.037 224.772C263.292 235.313 261.459 250.363 234.636 252.81C225.729 253.62 225.72 253.6 236.82 256.578C265.646 264.305 261.563 279.914 230.135 282.12C223.242 282.602 197.833 283.016 173.678 283.035C149.523 283.055 122.823 282.621 114.335 282.082C90.3695 280.559 83.2388 277.784 83.2388 269.99Z" fill="white" fill-opacity="0.988235"/>
<path d="M416.941 294H358.446L447.574 35.8182H517.919L606.921 294H548.427L483.755 94.8168H481.738L416.941 294ZM413.285 192.517H551.452V235.127H413.285V192.517Z" fill="#131714"/>
<path d="M685.649 238.279L685.775 173.86H693.591L755.615 100.364H817.261L733.932 197.686H721.199L685.649 238.279ZM636.988 294V35.8182H690.691V294H636.988ZM758.01 294L701.029 209.662L736.831 171.717L820.917 294H758.01Z" fill="#131714"/>
<path d="M923.124 297.782C903.542 297.782 886.608 293.622 872.32 285.301C858.117 276.897 847.149 265.215 839.417 250.255C831.685 235.212 827.819 217.772 827.819 197.938C827.819 177.936 831.685 160.455 839.417 145.495C847.149 130.451 858.117 118.769 872.32 110.449C886.608 102.045 903.542 97.8423 923.124 97.8423C942.707 97.8423 959.599 102.045 973.803 110.449C988.09 118.769 999.1 130.451 1006.83 145.495C1014.56 160.455 1018.43 177.936 1018.43 197.938C1018.43 217.772 1014.56 235.212 1006.83 250.255C999.1 265.215 988.09 276.897 973.803 285.301C959.599 293.622 942.707 297.782 923.124 297.782ZM923.377 256.18C932.285 256.18 939.723 253.659 945.69 248.616C951.657 243.49 956.154 236.514 959.179 227.69C962.289 218.865 963.844 208.822 963.844 197.56C963.844 186.298 962.289 176.255 959.179 167.43C956.154 158.606 951.657 151.63 945.69 146.504C939.723 141.377 932.285 138.814 923.377 138.814C914.384 138.814 906.82 141.377 900.685 146.504C894.634 151.63 890.053 158.606 886.944 167.43C883.918 176.255 882.405 186.298 882.405 197.56C882.405 208.822 883.918 218.865 886.944 227.69C890.053 236.514 894.634 243.49 900.685 248.616C906.82 253.659 914.384 256.18 923.377 256.18Z" fill="#131714"/>
<path d="M1054.36 294V35.8182H1108.06V132.888H1109.7C1112.05 127.678 1115.46 122.383 1119.91 117.004C1124.45 111.541 1130.33 107.003 1137.56 103.389C1144.87 99.6913 1153.95 97.8423 1164.79 97.8423C1178.91 97.8423 1191.94 101.54 1203.87 108.936C1215.81 116.248 1225.35 127.3 1232.49 142.091C1239.63 156.799 1243.2 175.246 1243.2 197.434C1243.2 219.033 1239.72 237.271 1232.74 252.146C1225.85 266.938 1216.44 278.158 1204.5 285.806C1192.65 293.37 1179.37 297.152 1164.67 297.152C1154.24 297.152 1145.38 295.429 1138.07 291.983C1130.84 288.537 1124.91 284.209 1120.29 278.998C1115.67 273.703 1112.14 268.367 1109.7 262.988H1107.31V294H1054.36ZM1106.93 197.182C1106.93 208.696 1108.52 218.739 1111.72 227.311C1114.91 235.884 1119.53 242.565 1125.59 247.356C1131.64 252.062 1138.99 254.415 1147.65 254.415C1156.39 254.415 1163.78 252.02 1169.83 247.23C1175.89 242.355 1180.47 235.632 1183.58 227.059C1186.77 218.403 1188.37 208.444 1188.37 197.182C1188.37 186.004 1186.81 176.171 1183.7 167.683C1180.59 159.194 1176.01 152.555 1169.96 147.764C1163.91 142.974 1156.47 140.578 1147.65 140.578C1138.91 140.578 1131.51 142.89 1125.46 147.512C1119.49 152.134 1114.91 158.69 1111.72 167.178C1108.52 175.667 1106.93 185.668 1106.93 197.182Z" fill="#131714"/>
<path d="M1367.28 297.782C1347.37 297.782 1330.22 293.748 1315.85 285.68C1301.56 277.527 1290.55 266.013 1282.82 251.138C1275.09 236.178 1271.22 218.487 1271.22 198.064C1271.22 178.146 1275.09 160.665 1282.82 145.621C1290.55 130.577 1301.44 118.853 1315.47 110.449C1329.59 102.045 1346.15 97.8423 1365.14 97.8423C1377.92 97.8423 1389.81 99.9014 1400.82 104.02C1411.91 108.054 1421.58 114.147 1429.81 122.299C1438.13 130.451 1444.6 140.705 1449.23 153.059C1453.85 165.329 1456.16 179.701 1456.16 196.173V210.923H1292.65V177.642H1405.61C1405.61 169.91 1403.93 163.06 1400.57 157.093C1397.2 151.126 1392.54 146.462 1386.57 143.1C1380.69 139.654 1373.84 137.931 1366.02 137.931C1357.87 137.931 1350.64 139.822 1344.34 143.604C1338.12 147.302 1333.25 152.303 1329.72 158.606C1326.19 164.825 1324.38 171.759 1324.3 179.407V211.049C1324.3 220.63 1326.06 228.908 1329.59 235.884C1333.2 242.859 1338.29 248.238 1344.84 252.02C1351.4 255.802 1359.17 257.693 1368.17 257.693C1374.13 257.693 1379.6 256.853 1384.56 255.172C1389.51 253.491 1393.76 250.97 1397.29 247.608C1400.82 244.246 1403.51 240.128 1405.36 235.254L1455.03 238.531C1452.5 250.465 1447.34 260.887 1439.52 269.795C1431.79 278.62 1421.79 285.512 1409.52 290.47C1397.33 295.345 1383.25 297.782 1367.28 297.782Z" fill="#131714"/>
<path d="M1544.91 182.054V294H1491.21V100.364H1542.39V134.527H1544.66C1548.94 123.266 1556.13 114.357 1566.22 107.801C1576.3 101.162 1588.53 97.8423 1602.9 97.8423C1616.35 97.8423 1628.07 100.784 1638.07 106.667C1648.07 112.55 1655.85 120.954 1661.39 131.88C1666.94 142.722 1669.71 155.664 1669.71 170.708V294H1616.01V180.289C1616.1 168.439 1613.07 159.194 1606.93 152.555C1600.8 145.831 1592.35 142.469 1581.6 142.469C1574.37 142.469 1567.98 144.024 1562.43 147.134C1556.97 150.243 1552.68 154.782 1549.57 160.749C1546.55 166.632 1544.99 173.734 1544.91 182.054Z" fill="#131714"/>
</svg>
